<svg width="182" height="44" viewBox="0 0 182 44" fill="none" xmlns="http://www.w3.org/2000/svg">
<path d="M25.0224 12.9868L28.3097 13.8772C29.4776 14.1939 31.388 14.7121 32.5575 15.029L35.8443 15.9197C37.0126 16.2357 38.1877 15.5906 38.4567 14.4853L39.2136 11.3755C39.481 10.27 39.92 8.46158 40.1888 7.35563L40.9458 4.24589C41.2157 3.14096 40.4501 2.77656 39.2474 3.43627L37.1847 4.56874C36.4293 3.3684 35.6733 2.17464 35.3815 1.73786C34.7175 0.745832 33.441 -0.012993 30.9338 0.000168222C29.0726 0.00983348 24.128 0.0361575 21 0.0532259L25.1478 6.83967C25.2408 6.92604 25.3273 7.03565 25.4048 7.1798C25.6024 7.55264 26.3543 8.83545 27.1032 10.1032L25.0854 11.211C23.8821 11.8707 23.8545 12.6697 25.0224 12.9868" fill="#0CC19E"/>
<path d="M13.155 2.21627C12.0688 3.69393 9.31577 7.62693 9.31577 7.62693C8.6991 8.50849 9.01353 9.66218 10.016 10.1887L16.768 13.7391C17.7702 14.2659 19.0847 13.9693 19.6867 13.0799C19.6867 13.0799 23.4951 7.47171 23.8477 6.95261C24.2102 6.41336 24.6474 6.33293 25 6.65265L20.7729 3.2741e-07C19.6696 0.00544324 18.7864 0.0104755 18.3341 0.0124914C16.5762 0.0219661 14.5665 0.295529 13.155 2.21627" fill="#099177"/>
<path d="M1.4518 27.7211C2.19548 29.0543 4.25432 32.4854 5.76305 35L10.4423 27.9336C10.9938 27.0644 12.0159 25.4522 12.8689 24.117L15.2643 25.3463C16.4799 25.9709 17.232 25.593 16.9353 24.5073L16.0966 21.4525C15.8 20.3674 15.3136 18.591 15.0156 17.5054L14.1794 14.4503C13.8816 13.3646 12.6934 12.7544 11.5378 13.094L8.28713 14.0504C7.13156 14.3903 5.24198 14.9463 4.08618 15.2858L0.835519 16.2417C-0.320059 16.5812 -0.270764 17.3704 0.944912 17.994L2.71047 18.9011C1.80856 20.5127 0.746614 22.4154 0.47854 22.9614C-0.00538946 23.9471 0.293746 25.6485 1.4518 27.7211" fill="#0CC19E"/>
<path d="M10.7085 28L6 35.3875C6.84617 36.8507 7.52066 38.0189 7.69959 38.3431C8.19651 39.2495 8.90836 41.0242 13.4017 40.9998C17.8921 40.9749 19.9337 40.9639 19.9337 40.9639C21.0761 40.9575 22.0068 40.0551 22 38.9583L21.9562 31.5593C21.9488 30.4619 21.0097 29.5692 19.8648 29.5758C19.8648 29.5758 12.2183 29.6181 10.9427 29.6245C10.138 29.6291 10.0349 29.117 10.3178 28.6409C10.3565 28.5765 10.5006 28.3416 10.7085 28" fill="#099177"/>
<path d="M38.237 28.0592L42.1052 35C43.4591 32.7593 45.7573 28.8676 46.6968 27.1851C47.9533 24.9341 48.309 22.9831 47.73 21.9574C47.1497 20.9296 44.2857 15.9408 44.2857 15.9408C43.7643 15.0333 42.5473 14.7291 41.5791 15.2637L35.0197 18.8885C34.0516 19.4226 33.7126 20.5902 34.2654 21.4815C34.2654 21.4815 36.2584 24.7005 37.3683 26.5027C37.7132 27.0616 37.9738 27.4857 38.0616 27.633C38.1516 27.7857 38.2104 27.9292 38.237 28.0592" fill="#0CC19E"/>
<path d="M41.0407 37.689C41.1936 37.4468 41.5438 36.8549 42 36.069L38.1243 28.8435C38.2062 29.263 37.9788 29.5489 37.4216 29.5518C37.0398 29.5539 35.1527 29.5642 33.4135 29.5736L33.3919 27.3335C33.3785 26.0322 32.6517 25.6099 31.7742 26.395L29.3069 28.6025C28.4294 29.3866 26.9935 30.67 26.1174 31.4547L23.65 33.6623C22.7726 34.4469 22.7859 35.7186 23.6753 36.4881L26.186 38.6545C27.0779 39.424 28.5365 40.6827 29.4296 41.4527L31.9391 43.6192C32.831 44.3888 33.552 43.9545 33.5387 42.6532L33.517 40.5238C34.4991 40.5181 35.5836 40.5125 36.5861 40.507C39.3761 40.4924 40.4304 38.6489 41.0407 37.689Z" fill="#099177"/>
<path d="M72 35.832V13.656H86.976V17.848H76.992V22.2H85.856V26.296H76.992V31.64H87.712V35.832H72Z" fill="#322153"/>
<path d="M89.9112 27.416C89.9112 26.2 90.1032 25.0587 90.4872 23.992C90.8926 22.904 91.4686 21.9653 92.2153 21.176C92.9619 20.3653 93.8686 19.7253 94.9352 19.256C96.0019 18.7867 97.2179 18.552 98.5833 18.552C99.4792 18.552 100.301 18.6373 101.047 18.808C101.794 18.9573 102.519 19.1813 103.223 19.48L102.231 23.288C101.783 23.1173 101.293 22.968 100.759 22.84C100.226 22.712 99.6286 22.648 98.9673 22.648C97.5593 22.648 96.5033 23.0853 95.7992 23.96C95.1166 24.8347 94.7752 25.9867 94.7752 27.416C94.7752 28.9307 95.0953 30.104 95.7353 30.936C96.3966 31.768 97.5379 32.184 99.1593 32.184C99.7353 32.184 100.354 32.1307 101.015 32.024C101.677 31.9173 102.285 31.7467 102.839 31.512L103.511 35.416C102.957 35.6507 102.263 35.8533 101.431 36.024C100.599 36.1947 99.6819 36.28 98.6793 36.28C97.1433 36.28 95.8206 36.056 94.7113 35.608C93.6019 35.1387 92.6846 34.5093 91.9592 33.72C91.2552 32.9307 90.7326 32.0027 90.3913 30.936C90.0713 29.848 89.9112 28.6747 89.9112 27.416Z" fill="#322153"/>
<path d="M121.643 27.384C121.643 28.7067 121.451 29.9227 121.067 31.032C120.683 32.12 120.128 33.0587 119.403 33.848C118.677 34.616 117.803 35.2133 116.779 35.64C115.776 36.0667 114.645 36.28 113.387 36.28C112.149 36.28 111.019 36.0667 109.995 35.64C108.992 35.2133 108.128 34.616 107.403 33.848C106.677 33.0587 106.112 32.12 105.707 31.032C105.301 29.9227 105.099 28.7067 105.099 27.384C105.099 26.0613 105.301 24.856 105.707 23.768C106.133 22.68 106.709 21.752 107.435 20.984C108.181 20.216 109.056 19.6187 110.059 19.192C111.083 18.7653 112.192 18.552 113.387 18.552C114.603 18.552 115.712 18.7653 116.715 19.192C117.739 19.6187 118.613 20.216 119.339 20.984C120.064 21.752 120.629 22.68 121.035 23.768C121.44 24.856 121.643 26.0613 121.643 27.384ZM116.779 27.384C116.779 25.912 116.48 24.76 115.883 23.928C115.307 23.0747 114.475 22.648 113.387 22.648C112.299 22.648 111.456 23.0747 110.859 23.928C110.261 24.76 109.963 25.912 109.963 27.384C109.963 28.856 110.261 30.0293 110.859 30.904C111.456 31.7573 112.299 32.184 113.387 32.184C114.475 32.184 115.307 31.7573 115.883 30.904C116.48 30.0293 116.779 28.856 116.779 27.384Z" fill="#322153"/>
<path d="M132.056 36.152C130.67 36.1307 129.539 35.9813 128.664 35.704C127.811 35.4267 127.128 35.0427 126.616 34.552C126.126 34.04 125.784 33.432 125.592 32.728C125.422 32.0027 125.336 31.192 125.336 30.296V11.768L130.104 11V29.336C130.104 29.7627 130.136 30.1467 130.2 30.488C130.264 30.8293 130.382 31.1173 130.552 31.352C130.744 31.5867 131.011 31.7787 131.352 31.928C131.694 32.0773 132.152 32.1733 132.728 32.216L132.056 36.152Z" fill="#322153"/>
<path d="M134.661 27.544C134.661 26.0507 134.885 24.7493 135.333 23.64C135.803 22.5093 136.411 21.5707 137.157 20.824C137.904 20.0773 138.757 19.512 139.717 19.128C140.699 18.744 141.701 18.552 142.725 18.552C145.115 18.552 147.003 19.288 148.389 20.76C149.776 22.2107 150.469 24.3547 150.469 27.192C150.469 27.4693 150.459 27.7787 150.437 28.12C150.416 28.44 150.395 28.728 150.373 28.984H139.557C139.664 29.9653 140.123 30.744 140.933 31.32C141.744 31.896 142.832 32.184 144.197 32.184C145.072 32.184 145.925 32.1093 146.757 31.96C147.611 31.7893 148.304 31.5867 148.837 31.352L149.477 35.224C149.221 35.352 148.88 35.48 148.453 35.608C148.027 35.736 147.547 35.8427 147.013 35.928C146.501 36.0347 145.947 36.12 145.349 36.184C144.752 36.248 144.155 36.28 143.557 36.28C142.043 36.28 140.72 36.056 139.589 35.608C138.48 35.16 137.552 34.552 136.805 33.784C136.08 32.9947 135.536 32.0667 135.173 31C134.832 29.9333 134.661 28.7813 134.661 27.544ZM145.861 25.72C145.84 25.3147 145.765 24.92 145.637 24.536C145.531 24.152 145.349 23.8107 145.093 23.512C144.859 23.2133 144.549 22.968 144.165 22.776C143.803 22.584 143.344 22.488 142.789 22.488C142.256 22.488 141.797 22.584 141.413 22.776C141.029 22.9467 140.709 23.1813 140.453 23.48C140.197 23.7787 139.995 24.1307 139.845 24.536C139.717 24.92 139.621 25.3147 139.557 25.72H145.861Z" fill="#322153"/>
<path d="M153.989 14.808L158.757 14.04V19H164.485V22.968H158.757V28.888C158.757 29.8907 158.927 30.6907 159.269 31.288C159.631 31.8853 160.346 32.184 161.413 32.184C161.925 32.184 162.447 32.1413 162.981 32.056C163.535 31.9493 164.037 31.8107 164.485 31.64L165.157 35.352C164.581 35.5867 163.941 35.7893 163.237 35.96C162.533 36.1307 161.669 36.216 160.645 36.216C159.343 36.216 158.266 36.0453 157.413 35.704C156.559 35.3413 155.877 34.8507 155.365 34.232C154.853 33.592 154.49 32.824 154.277 31.928C154.085 31.032 153.989 30.04 153.989 28.952V14.808Z" fill="#322153"/>
<path d="M174.174 32.504C174.644 32.504 175.092 32.4933 175.519 32.472C175.945 32.4507 176.286 32.4187 176.543 32.376V28.76C176.351 28.7173 176.062 28.6747 175.678 28.632C175.294 28.5893 174.942 28.568 174.622 28.568C174.174 28.568 173.748 28.6 173.342 28.664C172.958 28.7067 172.617 28.8027 172.318 28.952C172.02 29.1013 171.785 29.304 171.615 29.56C171.444 29.816 171.358 30.136 171.358 30.52C171.358 31.2667 171.604 31.7893 172.094 32.088C172.606 32.3653 173.3 32.504 174.174 32.504ZM173.79 18.552C175.198 18.552 176.372 18.712 177.311 19.032C178.249 19.352 178.996 19.8107 179.55 20.408C180.126 21.0053 180.532 21.7307 180.767 22.584C181.001 23.4373 181.118 24.3867 181.118 25.432V35.352C180.436 35.5013 179.487 35.672 178.271 35.864C177.054 36.0773 175.582 36.184 173.854 36.184C172.767 36.184 171.775 36.088 170.879 35.896C170.004 35.704 169.246 35.3947 168.606 34.968C167.966 34.52 167.476 33.944 167.134 33.24C166.793 32.536 166.622 31.672 166.622 30.648C166.622 29.6667 166.814 28.8347 167.199 28.152C167.604 27.4693 168.137 26.9253 168.799 26.52C169.46 26.1147 170.217 25.8267 171.071 25.656C171.924 25.464 172.809 25.368 173.727 25.368C174.345 25.368 174.889 25.4 175.358 25.464C175.849 25.5067 176.244 25.5707 176.543 25.656V25.208C176.543 24.3973 176.297 23.7467 175.807 23.256C175.316 22.7653 174.463 22.52 173.246 22.52C172.436 22.52 171.636 22.584 170.846 22.712C170.057 22.8187 169.374 22.9787 168.799 23.192L168.19 19.352C168.468 19.2667 168.809 19.1813 169.215 19.096C169.641 18.9893 170.1 18.904 170.59 18.84C171.081 18.7547 171.593 18.6907 172.127 18.648C172.681 18.584 173.236 18.552 173.79 18.552Z" fill="#322153"/>
</svg>
