<svg width="219" height="87" viewBox="0 0 219 87" fill="none" xmlns="http://www.w3.org/2000/svg">
<path d="M48.8437 25.9735L55.2539 27.7544C57.5312 28.3878 61.2567 29.4242 63.5371 30.058L69.9464 31.8393C72.2246 32.4715 74.5161 31.1813 75.0406 28.9706L76.5164 22.7511C77.0379 20.54 77.894 16.9232 78.4181 14.7113L79.8944 8.49178C80.4207 6.28193 78.9277 5.55312 76.5825 6.87253L72.5602 9.13748C71.0871 6.7368 69.613 4.34929 69.044 3.47572C67.7492 1.49166 65.26 -0.025986 60.371 0.000336445C56.7416 0.019667 47.0997 0.072315 41 0.106452L49.0881 13.6793C49.2696 13.8521 49.4382 14.0713 49.5893 14.3596C49.9747 15.1053 51.4408 17.6709 52.9012 20.2065L48.9666 22.4221C46.6201 23.7415 46.5663 25.3393 48.8437 25.9735" fill="#0CC19E"/>
<path d="M26.0503 4.43255C23.9457 7.38785 18.6118 15.2539 18.6118 15.2539C17.417 17.017 18.0262 19.3244 19.9685 20.3775L33.0504 27.4783C34.9922 28.5318 37.5392 27.9387 38.7054 26.1599C38.7054 26.1599 46.0842 14.9434 46.7674 13.9052C47.4698 12.8267 48.3168 12.6659 49 13.3053L40.81 6.54821e-07C38.6724 0.0108865 36.9612 0.020951 36.0849 0.0249828C32.6789 0.0439322 28.7851 0.591059 26.0503 4.43255" fill="#099177"/>
<path d="M2.9036 54.4422C4.39095 57.1085 8.50863 63.9709 11.5261 69L20.8846 54.8673C21.9875 53.1287 24.0317 49.9044 25.7379 47.234L30.5285 49.6926C32.9599 50.9419 34.4639 50.186 33.8706 48.0146L32.1933 41.9049C31.5999 39.7348 30.6271 36.1821 30.0311 34.0107L28.3587 27.9006C27.7632 25.7292 25.3867 24.5088 23.0756 25.1879L16.5743 27.1008C14.2631 27.7807 10.484 28.8926 8.17236 29.5717L1.67104 31.4834C-0.640119 32.1624 -0.541527 33.7409 1.88982 34.9881L5.42093 36.8022C3.61711 40.0253 1.49323 43.8308 0.95708 44.9228C-0.0107789 46.8942 0.587493 50.297 2.9036 54.4422" fill="#0CC19E"/>
<path d="M20.417 55L11 69.2068C12.6923 72.0207 14.0413 74.2672 14.3992 74.8906C15.393 76.6337 16.8167 80.0465 25.8034 79.9995C34.7842 79.9517 38.8674 79.9305 38.8674 79.9305C41.1522 79.9182 43.0135 78.1828 42.9999 76.0736L42.9125 61.8448C42.8975 59.7344 41.0195 58.0177 38.7297 58.0304C38.7297 58.0304 23.4366 58.1117 20.8854 58.124C19.276 58.1329 19.0698 57.148 19.6356 56.2325C19.7131 56.1087 20.0012 55.6569 20.417 55" fill="#099177"/>
<path d="M74.4739 56.7715L82.2104 71C84.9182 66.4065 89.5146 58.4285 91.3937 54.9795C93.9066 50.365 94.6179 46.3654 93.46 44.2628C92.2995 42.1556 86.5713 31.9287 86.5713 31.9287C85.5287 30.0683 83.0945 29.4447 81.1583 30.5406L68.0394 37.9713C66.1032 39.0664 65.4252 41.46 66.5309 43.2872C66.5309 43.2872 70.5168 49.8861 72.7367 53.5806C73.4263 54.7263 73.9477 55.5958 74.1232 55.8976C74.3033 56.2108 74.4208 56.5049 74.4739 56.7715" fill="#0CC19E"/>
<path d="M80.1318 74.3779C80.4296 73.8936 81.1116 72.7098 82 71.138L74.4526 56.6869C74.612 57.5259 74.1693 58.0979 73.0841 58.1036C72.3406 58.1077 68.6657 58.1283 65.2789 58.1472L65.2368 53.6671C65.2109 51.0645 63.7954 50.2197 62.0867 51.7899L57.2818 56.2051C55.573 57.7732 52.7769 60.34 51.0707 61.9094L46.2659 66.3245C44.5571 67.8939 44.583 70.4372 46.3151 71.9761L51.2042 76.309C52.9411 77.8479 55.7816 80.3653 57.5207 81.9055L62.4077 86.2383C64.1446 87.7777 65.5486 86.909 65.5227 84.3064L65.4805 80.0477C67.3931 80.0361 69.505 80.025 71.4571 80.0139C76.8904 79.9847 78.9435 76.2979 80.1318 74.3779Z" fill="#099177"/>
<path d="M109 57.832V35.656H123.976V39.848H113.992V44.2H122.856V48.296H113.992V53.64H124.712V57.832H109Z" fill="#322153"/>
<path d="M126.911 49.416C126.911 48.2 127.103 47.0587 127.487 45.992C127.893 44.904 128.469 43.9653 129.215 43.176C129.962 42.3653 130.869 41.7253 131.935 41.256C133.002 40.7867 134.218 40.552 135.583 40.552C136.479 40.552 137.301 40.6373 138.047 40.808C138.794 40.9573 139.519 41.1813 140.223 41.48L139.231 45.288C138.783 45.1173 138.293 44.968 137.759 44.84C137.226 44.712 136.629 44.648 135.967 44.648C134.559 44.648 133.503 45.0853 132.799 45.96C132.117 46.8347 131.775 47.9867 131.775 49.416C131.775 50.9307 132.095 52.104 132.735 52.936C133.397 53.768 134.538 54.184 136.159 54.184C136.735 54.184 137.354 54.1307 138.015 54.024C138.677 53.9173 139.285 53.7467 139.839 53.512L140.511 57.416C139.957 57.6507 139.263 57.8533 138.431 58.024C137.599 58.1947 136.682 58.28 135.679 58.28C134.143 58.28 132.821 58.056 131.711 57.608C130.602 57.1387 129.685 56.5093 128.959 55.72C128.255 54.9307 127.733 54.0027 127.391 52.936C127.071 51.848 126.911 50.6747 126.911 49.416Z" fill="#322153"/>
<path d="M158.643 49.384C158.643 50.7067 158.451 51.9227 158.067 53.032C157.683 54.12 157.128 55.0587 156.403 55.848C155.677 56.616 154.803 57.2133 153.779 57.64C152.776 58.0667 151.645 58.28 150.387 58.28C149.149 58.28 148.019 58.0667 146.995 57.64C145.992 57.2133 145.128 56.616 144.403 55.848C143.677 55.0587 143.112 54.12 142.707 53.032C142.301 51.9227 142.099 50.7067 142.099 49.384C142.099 48.0613 142.301 46.856 142.707 45.768C143.133 44.68 143.709 43.752 144.435 42.984C145.181 42.216 146.056 41.6187 147.059 41.192C148.083 40.7653 149.192 40.552 150.387 40.552C151.603 40.552 152.712 40.7653 153.715 41.192C154.739 41.6187 155.613 42.216 156.339 42.984C157.064 43.752 157.629 44.68 158.035 45.768C158.44 46.856 158.643 48.0613 158.643 49.384ZM153.779 49.384C153.779 47.912 153.48 46.76 152.883 45.928C152.307 45.0747 151.475 44.648 150.387 44.648C149.299 44.648 148.456 45.0747 147.859 45.928C147.261 46.76 146.963 47.912 146.963 49.384C146.963 50.856 147.261 52.0293 147.859 52.904C148.456 53.7573 149.299 54.184 150.387 54.184C151.475 54.184 152.307 53.7573 152.883 52.904C153.48 52.0293 153.779 50.856 153.779 49.384Z" fill="#322153"/>
<path d="M169.056 58.152C167.67 58.1307 166.539 57.9813 165.664 57.704C164.811 57.4267 164.128 57.0427 163.616 56.552C163.126 56.04 162.784 55.432 162.592 54.728C162.422 54.0027 162.336 53.192 162.336 52.296V33.768L167.104 33V51.336C167.104 51.7627 167.136 52.1467 167.2 52.488C167.264 52.8293 167.382 53.1173 167.552 53.352C167.744 53.5867 168.011 53.7787 168.352 53.928C168.694 54.0773 169.152 54.1733 169.728 54.216L169.056 58.152Z" fill="#322153"/>
<path d="M171.661 49.544C171.661 48.0507 171.885 46.7493 172.333 45.64C172.803 44.5093 173.411 43.5707 174.157 42.824C174.904 42.0773 175.757 41.512 176.717 41.128C177.699 40.744 178.701 40.552 179.725 40.552C182.115 40.552 184.003 41.288 185.389 42.76C186.776 44.2107 187.469 46.3547 187.469 49.192C187.469 49.4693 187.459 49.7787 187.437 50.12C187.416 50.44 187.395 50.728 187.373 50.984H176.557C176.664 51.9653 177.123 52.744 177.933 53.32C178.744 53.896 179.832 54.184 181.197 54.184C182.072 54.184 182.925 54.1093 183.757 53.96C184.611 53.7893 185.304 53.5867 185.837 53.352L186.477 57.224C186.221 57.352 185.88 57.48 185.453 57.608C185.027 57.736 184.547 57.8427 184.013 57.928C183.501 58.0347 182.947 58.12 182.349 58.184C181.752 58.248 181.155 58.28 180.557 58.28C179.043 58.28 177.72 58.056 176.589 57.608C175.48 57.16 174.552 56.552 173.805 55.784C173.08 54.9947 172.536 54.0667 172.173 53C171.832 51.9333 171.661 50.7813 171.661 49.544ZM182.861 47.72C182.84 47.3147 182.765 46.92 182.637 46.536C182.531 46.152 182.349 45.8107 182.093 45.512C181.859 45.2133 181.549 44.968 181.165 44.776C180.803 44.584 180.344 44.488 179.789 44.488C179.256 44.488 178.797 44.584 178.413 44.776C178.029 44.9467 177.709 45.1813 177.453 45.48C177.197 45.7787 176.995 46.1307 176.845 46.536C176.717 46.92 176.621 47.3147 176.557 47.72H182.861Z" fill="#322153"/>
<path d="M190.989 36.808L195.757 36.04V41H201.485V44.968H195.757V50.888C195.757 51.8907 195.927 52.6907 196.269 53.288C196.631 53.8853 197.346 54.184 198.413 54.184C198.925 54.184 199.447 54.1413 199.981 54.056C200.535 53.9493 201.037 53.8107 201.485 53.64L202.157 57.352C201.581 57.5867 200.941 57.7893 200.237 57.96C199.533 58.1307 198.669 58.216 197.645 58.216C196.343 58.216 195.266 58.0453 194.413 57.704C193.559 57.3413 192.877 56.8507 192.365 56.232C191.853 55.592 191.49 54.824 191.277 53.928C191.085 53.032 190.989 52.04 190.989 50.952V36.808Z" fill="#322153"/>
<path d="M211.174 54.504C211.644 54.504 212.092 54.4933 212.519 54.472C212.945 54.4507 213.286 54.4187 213.543 54.376V50.76C213.351 50.7173 213.062 50.6747 212.678 50.632C212.294 50.5893 211.942 50.568 211.622 50.568C211.174 50.568 210.748 50.6 210.342 50.664C209.958 50.7067 209.617 50.8027 209.318 50.952C209.02 51.1013 208.785 51.304 208.615 51.56C208.444 51.816 208.358 52.136 208.358 52.52C208.358 53.2667 208.604 53.7893 209.094 54.088C209.606 54.3653 210.3 54.504 211.174 54.504ZM210.79 40.552C212.198 40.552 213.372 40.712 214.311 41.032C215.249 41.352 215.996 41.8107 216.55 42.408C217.126 43.0053 217.532 43.7307 217.767 44.584C218.001 45.4373 218.118 46.3867 218.118 47.432V57.352C217.436 57.5013 216.487 57.672 215.271 57.864C214.054 58.0773 212.582 58.184 210.854 58.184C209.767 58.184 208.775 58.088 207.879 57.896C207.004 57.704 206.246 57.3947 205.606 56.968C204.966 56.52 204.476 55.944 204.134 55.24C203.793 54.536 203.622 53.672 203.622 52.648C203.622 51.6667 203.814 50.8347 204.199 50.152C204.604 49.4693 205.137 48.9253 205.799 48.52C206.46 48.1147 207.217 47.8267 208.071 47.656C208.924 47.464 209.809 47.368 210.727 47.368C211.345 47.368 211.889 47.4 212.358 47.464C212.849 47.5067 213.244 47.5707 213.543 47.656V47.208C213.543 46.3973 213.297 45.7467 212.807 45.256C212.316 44.7653 211.463 44.52 210.246 44.52C209.436 44.52 208.636 44.584 207.846 44.712C207.057 44.8187 206.374 44.9787 205.799 45.192L205.19 41.352C205.468 41.2667 205.809 41.1813 206.215 41.096C206.641 40.9893 207.1 40.904 207.59 40.84C208.081 40.7547 208.593 40.6907 209.127 40.648C209.681 40.584 210.236 40.552 210.79 40.552Z" fill="#322153"/>
</svg>
