<svg width="565" height="405" viewBox="0 0 565 405" fill="none" xmlns="http://www.w3.org/2000/svg">
<g clip-path="url(#clip0_24026_315)">
<path d="M457.247 257.7C457.752 257.746 458.259 257.637 458.7 257.386C459.141 257.135 459.493 256.754 459.711 256.295C459.928 255.837 459.999 255.323 459.914 254.823C459.83 254.322 459.593 253.86 459.237 253.499C459.186 253.248 459.15 253.068 459.099 252.818C459.124 252.765 459.149 252.712 459.174 252.659C459.74 251.478 460.642 250.491 461.767 249.821C462.893 249.152 464.191 248.83 465.498 248.895C466.806 248.961 468.065 249.412 469.118 250.191C470.17 250.97 470.969 252.043 471.413 253.275C473.191 258.191 475.515 263.141 475.906 268.269C476.077 270.536 475.854 272.816 475.247 275.007C480.427 264.966 483.388 253.929 483.929 242.643C484.061 239.811 484.036 236.974 483.852 234.144C483.699 231.825 483.445 229.517 483.089 227.221C481.143 214.762 476.269 202.943 468.869 192.734C465.163 190.481 462.236 187.146 460.482 183.178C459.847 181.752 459.421 180.241 459.218 178.692C459.644 178.768 460.079 178.824 460.506 178.872C460.64 178.885 460.78 178.899 460.913 178.912L460.964 178.916C461.434 178.96 461.907 178.866 462.326 178.646C462.744 178.427 463.09 178.091 463.322 177.679C463.554 177.268 463.663 176.798 463.634 176.326C463.605 175.854 463.441 175.401 463.16 175.021C462.986 174.784 462.811 174.547 462.636 174.311C462.371 173.946 462.099 173.588 461.834 173.223C461.803 173.188 461.774 173.152 461.747 173.113C461.442 172.697 461.137 172.288 460.832 171.872C461.465 170.983 462.296 170.252 463.258 169.736C466.589 167.988 471.001 169.512 473.206 172.554C475.419 175.597 475.67 179.733 474.684 183.36C473.736 186.441 472.272 189.339 470.352 191.928C470.517 192.162 470.69 192.388 470.855 192.622C473.877 196.905 476.472 201.475 478.603 206.264C478.276 200.994 479.204 195.722 481.312 190.881C483.43 186.376 487.178 182.674 490.505 178.849C494.501 174.255 502.144 176.697 502.528 182.774C502.532 182.833 502.535 182.892 502.538 182.951C502.059 183.192 501.59 183.451 501.129 183.726C500.55 184.075 500.09 184.591 499.809 185.206C499.528 185.821 499.439 186.506 499.555 187.173C499.67 187.839 499.984 188.455 500.456 188.94C500.927 189.425 501.534 189.756 502.196 189.89L502.264 189.903C502.02 191.578 501.648 193.232 501.153 194.85C499.726 199.366 497.382 203.538 494.267 207.105C491.152 210.673 487.334 213.558 483.053 215.58C482.772 215.708 482.498 215.836 482.217 215.957C484.266 222.755 485.421 229.79 485.656 236.886C485.78 241.072 485.567 245.261 485.016 249.412L485.044 249.265C486.16 244.673 488.827 240.606 492.594 237.752C498.185 233.578 505.87 232.303 511.846 229.017C512.481 228.649 513.209 228.471 513.943 228.503C514.677 228.535 515.386 228.777 515.987 229.199C516.589 229.622 517.056 230.207 517.336 230.887C517.615 231.566 517.694 232.311 517.564 233.034C517.554 233.086 517.543 233.137 517.533 233.189C516.65 233.501 515.788 233.868 514.951 234.288C514.472 234.53 514.002 234.788 513.542 235.063C512.963 235.412 512.503 235.928 512.222 236.543C511.941 237.158 511.852 237.844 511.968 238.51C512.083 239.176 512.397 239.792 512.868 240.277C513.34 240.762 513.946 241.093 514.609 241.227L514.677 241.241C514.726 241.25 514.768 241.259 514.817 241.268C513.172 244.734 510.944 247.89 508.229 250.599C504.878 253.875 500.894 256.432 496.52 258.114C492.146 259.795 487.475 260.565 482.793 260.377L482.786 260.377C481.258 265.84 479.167 271.129 476.546 276.16L456.923 275.246C456.863 275.025 456.81 274.797 456.757 274.576C458.568 274.775 460.396 274.751 462.202 274.505C460.829 272.65 459.457 270.782 458.084 268.927C458.053 268.892 458.024 268.856 457.997 268.817C457.301 267.869 456.598 266.926 455.902 265.977L455.902 265.976C455.993 263.171 456.445 260.39 457.246 257.7L457.247 257.7Z" fill="#2DC171"/>
<path d="M61.8566 87.9838C61.3554 88.0618 60.8423 87.9837 60.3869 87.7603C59.9315 87.5368 59.5558 87.1788 59.3106 86.7346C59.0655 86.2905 58.9628 85.7817 59.0164 85.2772C59.07 84.7727 59.2774 84.2969 59.6105 83.9142C59.6457 83.661 59.6709 83.4791 59.7062 83.2258C59.6781 83.1746 59.65 83.1234 59.6217 83.0723C58.9838 81.9286 58.0223 80.9989 56.8579 80.4001C55.6934 79.8012 54.378 79.5598 53.0769 79.7063C51.7757 79.8527 50.5469 80.3805 49.5446 81.2232C48.5424 82.0659 47.8115 83.186 47.4437 84.4429C45.9731 89.4595 43.9591 94.5435 43.8864 99.6865C43.8553 101.96 44.2186 104.221 44.9603 106.37C39.1699 96.6687 35.5328 85.8354 34.2956 74.6048C33.9881 71.7863 33.8384 68.9528 33.8471 66.1176C33.8564 63.793 33.9678 61.474 34.1813 59.1603C35.3539 46.6051 39.4876 34.5072 46.2428 23.8601C49.8033 21.3827 52.5189 17.8733 54.0238 13.8047C54.5701 12.3416 54.9018 10.8071 55.0086 9.24891C54.5877 9.35137 54.1575 9.43358 53.7336 9.50801C53.6013 9.52945 53.4621 9.5517 53.3299 9.57319L53.2799 9.5809C52.813 9.65302 52.3351 9.58859 51.9039 9.39538C51.4726 9.20217 51.1065 8.88842 50.8494 8.4919C50.5923 8.09537 50.4553 7.63297 50.4549 7.16038C50.4544 6.68778 50.5906 6.22514 50.8469 5.82814C51.0066 5.58116 51.1664 5.33428 51.3263 5.08751C51.5683 4.70698 51.818 4.33271 52.0599 3.95223C52.0886 3.91546 52.1152 3.87707 52.1395 3.83726C52.4181 3.40316 52.6974 2.97611 52.976 2.54201C52.289 1.69355 51.4154 1.01527 50.4232 0.560052C46.9907 -0.979152 42.6812 0.814316 40.6677 3.9873C38.6473 7.16099 38.6517 11.3046 39.8603 14.8638C40.9964 17.8806 42.6375 20.682 44.7134 23.148C44.5627 23.3911 44.4044 23.6279 44.2537 23.871C41.5022 28.3332 39.1945 33.0542 37.3638 37.9666C37.3647 32.6863 36.1122 27.4813 33.7094 22.7797C31.3176 18.4145 27.3478 14.9509 23.7908 11.3392C19.5183 7.00102 12.041 9.91059 12.0336 15.9999C12.0335 16.0589 12.0336 16.1178 12.0338 16.1767C12.5268 16.3882 13.0118 16.617 13.4886 16.8628C14.0881 17.1755 14.5792 17.662 14.8975 18.2586C15.2159 18.8552 15.3466 19.534 15.2726 20.2061C15.1986 20.8783 14.9233 21.5124 14.4828 22.0254C14.0423 22.5384 13.4571 22.9064 12.8039 23.0811L12.7371 23.099C13.0846 24.7553 13.5576 26.3829 14.1518 27.9675C15.855 32.3865 18.4526 36.406 21.7817 39.7739C25.1108 43.1418 29.0996 45.7855 33.4982 47.5393C33.7864 47.6496 34.0676 47.7607 34.3551 47.864C32.7307 54.7754 32.0117 61.8687 32.2162 68.9656C32.3502 73.1511 32.8224 77.3189 33.6282 81.4282L33.5912 81.2835C32.1936 76.7685 29.2808 72.8744 25.345 70.2585C19.5062 66.438 11.7575 65.6402 5.59024 62.7296C4.9328 62.4018 4.19536 62.2689 3.46489 62.3466C2.73442 62.4242 2.04139 62.7092 1.46755 63.1679C0.893698 63.6266 0.462962 64.2398 0.226145 64.9353C-0.0106725 65.6308 -0.0436974 66.3795 0.130969 67.0931C0.14432 67.1438 0.157811 67.1944 0.171432 67.2451C1.07159 67.5024 1.95483 67.8156 2.81604 68.1828C3.30905 68.3944 3.79398 68.6232 4.27085 68.869C4.87035 69.1817 5.36143 69.6682 5.67976 70.2648C5.99808 70.8613 6.1288 71.5402 6.05479 72.2123C5.98078 72.8845 5.7055 73.5186 5.265 74.0316C4.8245 74.5446 4.23933 74.9126 3.58617 75.0873L3.51924 75.1051C3.47102 75.1175 3.42976 75.1291 3.38161 75.1414C5.2369 78.4984 7.65609 81.5109 10.5332 84.047C14.0798 87.1099 18.2145 89.416 22.6839 90.824C27.1533 92.2319 31.863 92.712 36.5245 92.2347L36.5315 92.234C38.3937 97.5922 40.8076 102.742 43.7343 107.601L63.2638 105.477C63.3102 105.252 63.3488 105.021 63.3882 104.797C61.5929 105.108 59.7664 105.197 57.9493 105.063C59.2049 103.127 60.4589 101.178 61.7145 99.2417C61.7432 99.2049 61.7698 99.1666 61.7941 99.1268C62.4301 98.1367 63.0739 97.1529 63.7099 96.1628L63.7101 96.1616C63.4459 93.3676 62.8231 90.6192 61.8572 87.9842L61.8566 87.9838Z" fill="#2DC171"/>
<path d="M331.673 80.7453C332.639 81.0113 333.536 81.486 334.299 82.1361C335.062 82.7861 335.674 83.5957 336.091 84.5077C336.507 85.4197 336.719 86.412 336.711 87.4147C336.703 88.4174 336.475 89.4061 336.043 90.3112L346.523 101.965L340.996 110.062L326.427 93.3968C324.955 92.5708 323.837 91.2335 323.285 89.6381C322.733 88.0428 322.785 86.3003 323.431 84.7408C324.078 83.1814 325.274 81.9133 326.793 81.1769C328.312 80.4405 330.048 80.2869 331.673 80.7453Z" fill="#A0616A"/>
<path d="M429.785 109.36C428.84 107.822 427.601 106.486 426.138 105.428C424.676 104.37 423.019 103.611 421.263 103.195C419.507 102.779 417.686 102.713 415.905 103.003C414.123 103.292 412.416 103.93 410.882 104.88L376.416 126.23L339.237 94.6219L329.987 103.236L371.059 156.533L424.44 128.7C423.194 129.349 431.29 111.811 429.785 109.36Z" fill="#2DC171"/>
<path d="M361.506 180.35C361.509 197.375 358.159 214.234 351.647 229.964C345.134 245.694 335.587 259.986 323.55 272.025C311.514 284.064 297.223 293.612 281.496 300.126C265.769 306.64 248.913 309.991 231.89 309.987C160.307 309.987 102.275 251.946 102.275 180.35C102.263 166.424 104.495 152.587 108.885 139.371C117.506 113.56 134.02 91.1128 156.094 75.2031C178.167 59.2934 204.683 50.7264 231.89 50.7134C255.356 50.7053 278.383 57.0704 298.513 69.1295C318.644 81.1885 335.122 98.4887 346.19 119.183C348.934 124.289 351.328 129.576 353.355 135.006C353.635 135.762 353.909 136.519 354.175 137.282V137.289C355.364 140.645 356.41 144.064 357.315 147.545C360.107 158.256 361.515 169.281 361.506 180.35Z" fill="#322153"/>
<path d="M217.709 92.8858C211.885 89.7354 205.417 87.957 198.801 87.6862C192.184 87.4155 185.593 88.6596 179.531 91.3236C174.193 93.6471 168.572 97.8152 166.791 105.342C173.993 101.091 183.316 107.808 185.17 118.583L184.737 118.702C183.758 126.166 185.943 134.291 190.174 138.919C190.729 134.112 193.889 130.84 196.998 128.797C200.106 126.753 203.545 125.269 205.917 121.756C208.73 117.591 209.444 111.505 210.561 105.953C211.679 100.401 213.798 94.433 217.709 92.8858Z" fill="white"/>
<path d="M177.394 156.396C175.4 159.392 172.735 161.272 170.345 163.613C167.961 165.961 165.693 169.129 165.218 173.199C164.915 175.806 165.383 178.456 165.318 181.092C165.254 183.728 164.375 186.695 162.582 187.351C159.752 188.373 157.592 183.116 154.683 182.749C152.371 182.46 150.29 186.098 150.96 189.252C151.63 192.407 154.776 193.804 156.584 191.744C158.218 194.488 157.066 199.465 154.611 200.307C154.351 202.036 154.092 203.757 153.84 205.485C147.633 201.143 141.361 196.728 136.083 190.368C130.213 183.355 126.572 174.748 125.627 165.651C124.943 158.341 125.958 149.979 122.603 144.354C119.917 139.853 115.308 138.859 111.161 139.14C110.405 139.191 109.641 139.277 108.885 139.371C111.331 132.023 114.438 124.912 118.167 118.125C119.011 117.762 119.795 117.274 120.493 116.677C124.353 113.4 126.067 106.767 129.199 102.179C129.401 101.884 129.609 101.596 129.825 101.315C133.03 97.1306 137.321 94.9771 141.469 92.975C150.65 88.5169 160.098 84.0012 169.79 84.6206L167.032 84.8871C163.813 93.9041 160.592 102.921 157.369 111.938C156.879 113.321 156.385 114.706 155.885 116.094C154.056 121.221 152.17 126.681 152.45 132.421C152.616 135.82 153.797 139.45 156.044 140.617C158.139 141.697 160.429 140.372 162.452 139.061C163.309 138.514 164.159 137.966 165.016 137.412C168.091 135.431 171.497 133.4 174.744 134.725C177.718 135.935 179.914 139.976 180.332 144.333C180.715 148.568 179.682 152.811 177.394 156.396Z" fill="white"/>
<path d="M195.681 217.957C186.701 212.427 177.721 206.897 168.741 201.367L168.893 200.974C163.31 203.101 160.992 213.028 161.915 221.146C162.837 229.263 165.966 236.52 167.547 244.43C169.678 255.254 168.874 266.452 165.217 276.86C177.025 263.608 187.476 249.206 196.411 233.869C197.659 231.936 198.611 229.826 199.233 227.611C199.803 225.254 199.716 222.42 198.573 220.53C197.838 219.446 196.844 218.561 195.681 217.957Z" fill="white"/>
<path d="M160.24 117.348C159.286 119.492 158.919 122.352 159.785 124.571C160.668 126.837 162.537 127.861 164.257 128.713L169.219 131.173C170.869 131.992 172.649 132.818 174.332 132.145C176.361 131.333 177.769 128.15 177.405 125.196C177.017 122.052 175.036 119.889 173.203 118.047C170.639 115.47 168.074 112.893 165.51 110.315L164.064 112.086C162.501 113.611 161.208 115.39 160.24 117.348Z" fill="white"/>
<path d="M334.906 150.959C337.138 151.484 339.37 152.01 341.603 152.536C341.214 160.076 337.477 167.055 332.465 169.583C330.377 170.635 328.051 171.024 326.322 172.99C324.76 174.776 323.968 177.556 323.24 180.213C321.966 184.852 320.691 189.49 319.417 194.128C318.049 199.126 316.292 204.679 312.734 206.479C309.681 208.028 306.189 206.134 303.841 202.957C301.494 199.781 300.061 195.511 298.671 191.348C298.758 195.885 296.648 200.336 293.659 201.913C290.664 203.49 287.02 202.064 285.018 198.543C283.578 196.015 282.98 192.68 281.569 190.116C280.158 187.552 277.198 186.083 275.657 188.489C274.642 190.087 274.771 192.536 274.267 194.567C273.483 197.722 271.106 199.702 268.752 199.875C266.404 200.048 264.114 198.694 262.148 196.857C258.094 193.055 255.106 187.019 253.947 180.314C253.435 177.325 253.291 174.07 254.177 171.268C255.063 168.467 257.201 166.306 259.326 166.839C260.723 163.886 257.965 159.968 255.48 160.314C252.989 160.66 251.037 163.332 248.992 165.384C246.955 167.437 244.103 168.928 242.051 166.89C242.065 168.784 240.524 170.037 239.192 169.878C237.867 169.727 236.686 168.661 235.469 167.905C230.767 164.974 224.798 166.918 221.456 172.464C223.545 163.577 226.605 153.379 233.021 151.29C235.642 150.433 238.501 151.139 240.978 149.655C245.363 147.026 246.249 137.095 242.461 132.997C242.944 136.871 242.85 141.394 240.805 144.045C238.76 146.695 234.468 144.966 234.728 141.049C234.137 143.749 231.199 144.16 229.845 142.086C228.484 140.012 228.6 136.619 229.564 134.142C230.529 131.664 232.171 129.885 233.763 128.179C237.183 124.513 240.654 120.804 244.614 118.499C248.582 116.194 253.162 115.416 257.137 117.707C259.232 118.917 261.075 120.933 263.214 121.999C265.353 123.072 268.067 122.935 269.486 120.429C271.077 117.635 270.329 113.486 270.919 109.993C271.978 103.821 278.149 100.933 281.569 105.009C279.013 104.354 276.37 107.379 276.053 111.045C275.729 114.711 277.58 118.413 280.057 119.522C284.219 121.365 288.295 116.727 291.442 112.435C294.725 107.941 298.013 103.449 301.307 98.9598C301.833 98.1955 302.423 97.4774 303.071 96.8136C304.102 95.8081 305.477 95.2323 306.917 95.2029C308.357 95.1735 309.755 95.6926 310.826 96.6552C314.153 99.3703 315.716 104.938 318.445 108.769C322.405 114.336 328.332 115.69 333.847 116.77C337.959 117.57 342.073 118.374 346.19 119.183C348.934 124.289 351.328 129.575 353.355 135.006C346.384 137.966 339.954 143.505 334.906 150.959Z" fill="white"/>
<path d="M348.199 237.614C345.114 243.879 341.525 249.884 337.469 255.568C334.877 254.459 332.09 256.44 329.664 258.298C327.129 260.243 324.083 262.137 321.483 260.365C318.826 258.55 317.969 253.473 318.812 249.447C319.654 245.428 321.757 242.23 323.795 239.191C325.955 235.964 328.267 232.616 331.269 231.362C334.279 230.109 338.146 231.881 339.025 236.159L341.156 236.087C339.961 234.445 340.587 231.045 342.193 230.448C344.044 229.749 345.65 232.291 346.744 234.539C347.234 235.554 347.731 236.577 348.199 237.614Z" fill="white"/>
<path d="M266.566 207.193C261.984 207.481 258.355 201.84 255.944 196.291C253.532 190.741 251.332 184.395 247.198 181.571C244.836 179.957 242.143 179.735 239.581 178.953C237.019 178.171 234.337 176.553 233.113 173.257L230.206 172.083C226.368 174.241 222.48 176.439 219.172 179.952C215.463 183.892 213.153 188.944 212.598 194.328C212.042 200.146 214.092 206.633 217.923 208.819C220.95 210.546 224.474 209.457 227.539 211.038C231.37 213.014 233.644 218.752 234.505 224.417C235.366 230.083 235.148 235.97 235.763 241.7C236.379 247.43 238.077 253.392 241.59 256.328C245.986 260.003 252.436 256.949 254.408 250.261C255.376 246.98 255.342 243.278 256.066 239.872C257.34 233.874 260.778 229.424 263.505 224.504C266.233 219.585 268.379 212.903 266.566 207.193Z" fill="white"/>
<path d="M221.294 148.257C221.722 148.651 222.12 149.074 222.487 149.524C222.867 150.179 223.061 150.926 223.048 151.683C223.036 152.441 222.816 153.18 222.414 153.822C222.966 153.79 223.505 153.645 223.998 153.394C224.491 153.144 224.926 152.794 225.277 152.367C226.113 151.414 226.849 150.378 227.472 149.274C227.939 148.512 228.436 147.482 228.119 146.577C227.903 145.959 227.391 145.695 227.032 145.231C226.463 144.494 226.322 143.325 226.028 142.314C225.392 140.131 223.87 138.526 222.216 138.296L222.446 138.34C221.755 138.577 221.273 139.673 221.426 140.66C221.565 141.559 222.142 142.305 222.085 143.222C222.002 144.54 220.685 145.158 220.604 146.477C220.591 147.138 220.839 147.778 221.294 148.257Z" fill="white"/>
<path d="M213.445 125.859C213.452 125.857 213.458 125.857 213.465 125.855C213.606 125.726 213.737 125.587 213.856 125.439L213.445 125.859Z" fill="#E6E6E6"/>
<path d="M214.819 132.046C215.832 131.394 216.398 129.593 216.063 128.085C215.73 126.586 214.552 125.578 213.465 125.855C213.15 126.175 212.759 126.409 212.328 126.536C211.898 126.662 211.442 126.678 211.004 126.58C210.332 126.407 209.595 125.961 209.012 126.468C208.679 126.846 208.446 127.301 208.334 127.792C208.118 128.455 207.902 129.117 207.687 129.779C207.584 130.016 207.558 130.278 207.61 130.531C207.652 130.632 207.718 130.721 207.804 130.79C207.89 130.858 207.991 130.902 208.099 130.92C209.393 131.301 210.687 131.683 211.981 132.064C212.923 132.342 213.942 132.61 214.819 132.046Z" fill="white"/>
<path d="M312.493 217.461C311.895 216.482 311.296 215.503 310.698 214.523C310.111 213.389 309.308 212.381 308.334 211.554C308.12 211.375 307.872 211.24 307.605 211.158C307.338 211.076 307.058 211.048 306.78 211.076C306.502 211.103 306.233 211.187 305.987 211.32C305.742 211.454 305.526 211.635 305.352 211.853L305.424 212.412C306.788 214.123 308.23 216.023 308.576 218.562C308.712 219.563 308.665 220.599 308.784 221.604C308.904 222.609 309.244 223.652 309.892 224.085C310.834 224.714 311.94 223.786 312.61 222.654C313.209 221.724 313.478 220.62 313.373 219.519C313.224 218.78 312.924 218.08 312.493 217.461Z" fill="white"/>
<path d="M339.11 180.06C339.283 178.925 339.456 177.791 339.629 176.656C339.91 175.41 339.944 174.121 339.732 172.862C339.683 172.587 339.581 172.324 339.429 172.089C339.278 171.855 339.081 171.652 338.851 171.495C338.62 171.337 338.361 171.227 338.087 171.171C337.813 171.115 337.531 171.115 337.257 171.17L336.953 171.645C336.895 173.831 336.775 176.214 335.404 178.379C334.864 179.232 334.161 179.994 333.605 180.84C333.05 181.686 332.639 182.703 332.856 183.452C333.171 184.54 334.614 184.543 335.856 184.108C336.913 183.783 337.83 183.111 338.459 182.201C338.82 181.539 339.042 180.81 339.11 180.06Z" fill="#E6E6E6"/>
<path d="M321.875 218.736C322.167 217.895 321.745 216.931 321.656 216.002C321.613 214.802 321.931 213.616 322.569 212.599C323.203 211.639 323.683 210.586 323.992 209.479C324.122 208.974 324.099 208.442 323.924 207.951C323.726 207.506 323.246 207.303 322.971 207.655L323.56 208.034C322.765 207.892 321.949 207.932 321.171 208.15C320.728 208.32 320.332 208.594 320.017 208.949C319.701 209.304 319.477 209.73 319.361 210.191C319.264 210.909 319.105 211.618 318.886 212.309C318.535 213.03 317.855 213.271 317.428 213.904C317.137 214.466 316.99 215.091 317.001 215.724C317.011 216.356 317.179 216.976 317.488 217.528C318.025 218.43 318.877 219.101 319.881 219.409C320.599 219.667 321.546 219.681 321.875 218.736Z" fill="white"/>
<path d="M338.582 223.778C338.842 224.454 339.19 225.093 339.618 225.678C340.417 226.484 341.504 225.989 342.475 225.793C343.355 225.654 344.257 225.755 345.085 226.087C345.912 226.419 346.634 226.969 347.175 227.678C346.798 225.801 345.977 224.042 344.78 222.548C343.583 221.054 342.044 219.869 340.295 219.093C338.007 218.161 335.598 218.07 333.219 217.987L332.808 218.092C333.855 221.14 337.143 221.072 338.582 223.778Z" fill="white"/>
<path d="M267.819 230.013L267.825 230.026C267.865 229.949 267.905 229.873 267.944 229.796L267.819 230.013Z" fill="#E6E6E6"/>
<path d="M265.284 234.92C264.731 235.923 264.256 236.968 263.862 238.044C263.341 239.787 262.996 241.578 262.832 243.389C262.703 244.42 262.663 245.735 263.309 246.238C263.494 246.361 263.718 246.412 263.938 246.382C264.158 246.352 264.36 246.243 264.506 246.075C264.865 245.695 265.158 245.259 265.374 244.784C266.643 242.599 267.628 240.262 268.305 237.828C268.923 235.264 268.917 232.246 267.825 230.026C266.978 231.657 266.131 233.288 265.284 234.92Z" fill="white"/>
<path d="M240.833 104.191C241.235 104.584 241.744 104.852 242.297 104.96C242.849 105.067 243.422 105.011 243.943 104.798C245.022 104.326 246.011 103.672 246.869 102.865C247.579 102.339 248.181 101.682 248.643 100.929C248.897 100.479 249.06 99.9837 249.122 99.4705C249.184 98.9574 249.145 98.437 249.005 97.9393C248.605 96.7671 247.588 96.3742 246.691 96.1081C245.255 95.6822 243.819 95.2563 242.383 94.8304L243.421 93.8939C242.353 93.3202 241.17 94.3849 240.502 95.7032C240.074 96.5639 239.775 97.4834 239.616 98.4316C239.258 100.501 239.608 102.965 240.833 104.191Z" fill="#E6E6E6"/>
<path d="M266.187 95.6779C266.591 96.1242 267.151 96.3997 267.751 96.4486C268.352 96.4974 268.948 96.316 269.42 95.941C269.826 95.6361 270.163 95.2491 270.409 94.8052C270.656 94.3613 270.806 93.8705 270.85 93.3647C270.952 92.2349 270.393 90.9792 269.596 90.8817L269.778 89.8239C268.241 89.5463 266.35 89.4907 265.527 91.3571C265.249 92.0721 265.164 92.8474 265.28 93.6056C265.395 94.3639 265.708 95.0784 266.187 95.6779Z" fill="#E6E6E6"/>
<path d="M262.8 39.4263C253.791 38.41 244.747 41.0146 237.659 46.6671C230.57 52.3197 226.017 60.5572 225 69.5675C222.884 88.3304 232.767 129.075 250.787 145.941C259.271 113.626 289.002 94.4592 292.936 77.2319C297.139 58.824 281.56 41.5428 262.8 39.4263Z" fill="#6C63FF"/>
<path d="M256.569 81.1384C262.726 81.1384 267.717 76.1463 267.717 69.9883C267.717 63.8302 262.726 58.8382 256.569 58.8382C250.412 58.8382 245.421 63.8302 245.421 69.9883C245.421 76.1463 250.412 81.1384 256.569 81.1384Z" fill="white"/>
<path d="M244.847 162.018C248.88 162.018 252.149 158.748 252.149 154.715C252.149 150.682 248.88 147.412 244.847 147.412C240.815 147.412 237.545 150.682 237.545 154.715C237.545 158.748 240.815 162.018 244.847 162.018Z" fill="#6C63FF"/>
<path opacity="0.2" d="M265.793 61.9998C267.048 62.7539 268.142 63.7479 269.013 64.925C269.884 66.102 270.514 67.4391 270.868 68.8598C271.222 70.2806 271.293 71.7571 271.077 73.2053C270.86 74.6534 270.361 76.0447 269.607 77.2998C268.853 78.5549 267.859 79.6491 266.682 80.52C265.505 81.391 264.168 82.0215 262.748 82.3757C259.879 83.091 256.844 82.6372 254.309 81.1141C256.893 81.689 259.597 81.3255 261.938 80.0884C264.278 78.8514 266.102 76.8217 267.083 74.3626C268.064 71.9035 268.138 69.1756 267.291 66.667C266.445 64.1584 264.733 62.033 262.463 60.6712C263.638 60.9315 264.762 61.3802 265.793 61.9998Z" fill="#231F20"/>
<path opacity="0.2" d="M292.98 77.2679C289.046 94.4952 259.315 113.662 250.83 145.977C249.136 144.376 247.562 142.651 246.122 140.817C255.656 110.443 283.536 91.9856 287.337 75.341C290.739 60.4437 281.183 46.2859 267.471 40.3052C284.069 44.4783 296.832 60.3988 292.98 77.2679Z" fill="#231F20"/>
<path d="M158.329 82.9323C151.564 82.1691 144.773 84.125 139.449 88.3699C134.126 92.6148 130.706 98.8009 129.943 105.567C128.354 119.658 135.776 150.255 149.308 162.921C155.679 138.654 178.006 124.26 180.96 111.323C184.117 97.4993 172.417 84.5217 158.329 82.9323Z" fill="#6C63FF"/>
<path d="M153.65 114.257C158.274 114.257 162.022 110.508 162.022 105.883C162.022 101.259 158.274 97.5099 153.65 97.5099C149.027 97.5099 145.278 101.259 145.278 105.883C145.278 110.508 149.027 114.257 153.65 114.257Z" fill="white"/>
<path d="M144.847 174.995C147.876 174.995 150.331 172.539 150.331 169.51C150.331 166.481 147.876 164.026 144.847 164.026C141.819 164.026 139.364 166.481 139.364 169.51C139.364 172.539 141.819 174.995 144.847 174.995Z" fill="#6C63FF"/>
<path opacity="0.2" d="M160.577 99.8842C161.52 100.451 162.341 101.197 162.995 102.081C163.649 102.965 164.123 103.969 164.388 105.036C164.654 106.103 164.708 107.212 164.545 108.299C164.383 109.387 164.008 110.431 163.441 111.374C162.875 112.317 162.129 113.138 161.245 113.792C160.361 114.446 159.357 114.92 158.29 115.186C157.224 115.452 156.115 115.505 155.028 115.343C153.94 115.18 152.896 114.805 151.953 114.238C153.894 114.67 155.925 114.397 157.682 113.468C159.44 112.539 160.809 111.015 161.546 109.168C162.282 107.322 162.338 105.273 161.702 103.389C161.067 101.505 159.781 99.9092 158.077 98.8865C158.959 99.082 159.803 99.4189 160.577 99.8842Z" fill="#231F20"/>
<path opacity="0.2" d="M180.993 111.35C178.039 124.287 155.712 138.681 149.341 162.948C148.068 161.746 146.886 160.451 145.804 159.074C152.964 136.263 173.901 122.403 176.756 109.903C179.31 98.7157 172.134 88.0837 161.837 83.5923C174.302 86.7262 183.886 98.6819 180.993 111.35Z" fill="#231F20"/>
<path d="M420.437 386.261H411.245L406.872 350.799L420.439 350.8L420.437 386.261Z" fill="#A0616A"/>
<path d="M425.382 403.717H418.86L417.695 397.558L414.714 403.717H397.414C396.585 403.717 395.777 403.452 395.109 402.961C394.441 402.469 393.948 401.777 393.701 400.985C393.455 400.193 393.467 399.343 393.738 398.559C394.008 397.775 394.522 397.098 395.204 396.627L409.019 387.085V380.858L423.55 381.725L425.382 403.717Z" fill="#2F2E41"/>
<path d="M384.834 386.261H375.642L371.269 350.799L384.836 350.8L384.834 386.261Z" fill="#A0616A"/>
<path d="M389.779 403.717H383.256L382.092 397.558L379.11 403.717H361.811C360.982 403.717 360.174 403.452 359.506 402.961C358.838 402.469 358.345 401.777 358.098 400.985C357.851 400.193 357.864 399.343 358.134 398.559C358.405 397.775 358.919 397.098 359.601 396.627L373.416 387.085V380.858L387.947 381.725L389.779 403.717Z" fill="#2F2E41"/>
<path d="M349.912 292.635C351.671 295.274 370.808 367.821 370.808 367.821L387.776 369.756L385.762 351.503L382.683 319.201L377.916 297.64C377.916 297.64 394.751 259.322 395.815 256.269L396.571 254.079L401.831 301.819C402.456 303.523 402.728 305.337 402.631 307.15C402.473 310.132 405.463 354.995 405.463 354.995L406.901 371.084L421.439 373.104L427.337 345.266C432.263 336.223 429.439 304.088 427.425 301.097C425.411 298.106 426.211 277.276 426.211 277.276C428.783 276.37 444.12 224.063 436.449 224.372C436.942 221.583 437.329 219.094 437.329 219.094L424.012 208.353L390.687 199.688L382.28 195.651C382.28 195.651 367.263 223.422 367.413 224.803C367.62 226.552 367.219 228.319 366.278 229.808L351.117 280.557C351.117 280.557 348.135 289.97 349.912 292.635Z" fill="#6C63FF"/>
<path d="M433.637 111.038L428.335 99.7795L410.291 100.473L404.405 112.185C404.405 112.185 387.585 132.279 387.04 138.813C386.355 147.03 392.046 187.305 386.355 184.694C386.355 184.694 372.939 200.444 380.878 200.444C388.817 200.444 424.727 222.99 427.083 225.526C429.439 228.061 439.958 229.705 439.076 224.412C438.194 219.119 433.637 190.491 433.637 190.491L445.974 145.478C449.524 135.76 450.629 124.858 442.603 118.33L433.637 111.038Z" fill="#34CB79"/>
<path d="M366.799 77.902C364.385 76.9438 361.806 76.4704 359.21 76.5089C356.613 76.5474 354.05 77.097 351.666 78.1264C349.282 79.1557 347.124 80.6447 345.315 82.5082C343.506 84.3717 342.082 86.5733 341.124 88.9872C337.095 99.1393 336.427 123.383 343.925 135.534C353.566 118.784 373.071 112.599 377.882 103.581C383.022 93.9437 376.949 81.9319 366.799 77.902Z" fill="#6C63FF"/>
<path d="M358.682 100.465C362.243 100.465 365.131 97.5777 365.131 94.0154C365.131 90.4532 362.243 87.5654 358.682 87.5654C355.12 87.5654 352.233 90.4532 352.233 94.0154C352.233 97.5777 355.12 100.465 358.682 100.465Z" fill="white"/>
<path d="M339.278 143.754C341.611 143.754 343.502 141.863 343.502 139.529C343.502 137.196 341.611 135.305 339.278 135.305C336.945 135.305 335.054 137.196 335.054 139.529C335.054 141.863 336.945 143.754 339.278 143.754Z" fill="#6C63FF"/>
<path opacity="0.2" d="M365.043 90.9569C366.225 92.1922 366.867 93.8462 366.83 95.5553C366.793 97.2644 366.079 98.8888 364.845 100.072C363.611 101.255 361.958 101.899 360.249 101.864C358.54 101.828 356.916 101.116 355.732 99.8827C357.087 100.596 358.651 100.804 360.146 100.468C361.64 100.133 362.966 99.2772 363.887 98.0535C364.807 96.8298 365.263 95.3183 365.171 93.7895C365.079 92.2608 364.447 90.8145 363.386 89.7097C364.002 90.0333 364.562 90.4545 365.043 90.9569Z" fill="#231F20"/>
<path opacity="0.2" d="M377.901 103.607C373.09 112.626 353.585 118.811 343.944 135.561C343.242 134.409 342.625 133.208 342.099 131.965C352.031 116.458 370.396 110.389 375.044 101.675C379.204 93.876 376.019 84.5222 369.273 79.1019C377.904 83.9515 382.612 94.776 377.901 103.607Z" fill="#231F20"/>
<path d="M337.375 138.075C338.357 137.872 339.371 137.888 340.346 138.12C341.322 138.352 342.234 138.795 343.02 139.418C343.805 140.041 344.445 140.829 344.893 141.726C345.341 142.622 345.588 143.607 345.614 144.609L360.245 150.226L359.001 159.951L338.451 151.728C336.764 151.662 335.161 150.979 333.944 149.809C332.727 148.639 331.982 147.063 331.849 145.38C331.717 143.697 332.206 142.024 333.224 140.677C334.243 139.331 335.719 138.405 337.375 138.075L337.375 138.075Z" fill="#A0616A"/>
<path d="M439.602 118.034C438.061 117.094 436.35 116.467 434.567 116.189C432.784 115.911 430.963 115.988 429.21 116.416C427.456 116.843 425.804 117.613 424.349 118.68C422.894 119.747 421.663 121.092 420.728 122.636L399.728 157.32L352.248 146.063L347.922 157.941L408.726 186.747L439.521 137.691C444.131 131.21 446.389 122.179 439.602 118.034Z" fill="#2DC171"/>
<path d="M440.386 75.5279C440.387 78.8708 439.568 82.1629 438 85.1153C436.432 88.0676 434.163 90.5898 431.393 92.4606C428.623 94.3314 425.437 95.4935 422.113 95.8448C418.789 96.1962 415.43 95.7262 412.33 94.4759C409.23 93.2257 406.484 91.2335 404.334 88.6743C402.184 86.115 400.695 83.067 399.997 79.7976C399.299 76.5283 399.415 73.1377 400.333 69.9235C401.252 66.7093 402.945 63.7697 405.265 61.3628L405.363 61.2648C405.526 61.0932 405.689 60.9217 405.861 60.7583C405.862 60.7583 405.863 60.7581 405.864 60.7577C405.865 60.7573 405.866 60.7567 405.867 60.7559C405.868 60.7552 405.868 60.7542 405.869 60.7532C405.869 60.7522 405.869 60.7512 405.869 60.7501C406.081 60.554 406.294 60.358 406.514 60.1701C409.465 57.5829 413.099 55.901 416.98 55.3258C420.862 54.7506 424.827 55.3066 428.401 56.927C431.974 58.5474 435.006 61.1637 437.131 64.4626C439.257 67.7616 440.387 71.6033 440.386 75.5279V75.5279Z" fill="#2F2E41"/>
<path d="M414.936 97.3782C424.392 97.3782 432.058 89.711 432.058 80.2531C432.058 70.7951 424.392 63.1279 414.936 63.1279C405.479 63.1279 397.813 70.7951 397.813 80.2531C397.813 89.711 405.479 97.3782 414.936 97.3782Z" fill="#9E616A"/>
<path d="M433.118 85.1369L430.281 84.6357C428.696 84.3475 427.237 83.5821 426.098 82.4419C424.96 81.3017 424.196 79.841 423.911 78.2552L421.142 82.8952L421.021 82.9354C414.426 85.1255 407.564 84.4705 400.047 80.9355C397.898 79.9159 395.813 78.7662 393.804 77.4928L393.656 77.4002L393.643 77.226C393.26 71.655 394.51 67.0009 397.164 64.1209C398.183 63.0374 399.419 62.1814 400.792 61.6091C402.164 61.0368 403.643 60.7611 405.129 60.8C405.235 60.7723 405.332 60.7187 405.412 60.6438C405.45 60.6157 405.488 60.588 405.526 60.5616V60.5328L405.723 60.4402C406.146 60.2416 406.576 60.0513 407.007 59.8774C410.395 58.5657 414.084 58.2366 417.651 58.928C421.218 59.6195 424.517 61.3034 427.169 63.7862C432.444 68.8222 434.863 77.2735 433.189 84.8169L433.118 85.1369Z" fill="#2F2E41"/>
<path d="M469.233 99.7276C463.406 96.7197 470.9 85.8027 469.394 79.4199C467.888 73.0371 457.044 70.9841 456.354 64.4625C455.663 57.9408 454.038 51.2144 449.735 46.2658C446.985 43.1036 442.934 40.7692 438.763 41.1652C437.352 41.2993 435.986 41.7359 434.758 42.4455C433.531 43.155 432.471 44.1208 431.65 45.2771C430.83 46.4333 430.268 47.7529 430.004 49.1458C429.739 50.5388 429.777 51.9724 430.117 53.3491C428.929 51.6661 425.856 52.0309 425.095 53.9453C424.418 55.6472 425.913 57.7087 427.671 57.8592C429.972 60.7011 432.607 63.7172 436.211 64.2905C436.786 64.4224 437.382 64.422 437.956 64.2895C438.531 64.1569 439.067 63.8956 439.526 63.5253C440.374 62.7108 440.44 61.0824 439.434 60.4737C443.964 62.2734 446.619 67.172 447.292 72.0005C447.964 76.829 447.034 81.7145 446.421 86.5509C445.808 91.3873 445.544 96.4749 447.44 100.966C449.68 106.272 454.838 110.076 460.466 111.295C466.095 112.515 472.089 111.323 477.184 108.637C482.279 105.951 486.527 101.851 489.998 97.2548C484.019 101.501 475.748 103.091 469.233 99.7276Z" fill="#2F2E41"/>
<path d="M432.39 84.6608C432.39 84.6608 427.317 65.7251 405.575 61.3546C405.551 61.3465 405.469 61.3138 405.363 61.2649C405.297 61.224 405.216 61.1831 405.134 61.1423C405.379 61.0034 405.616 60.8809 405.861 60.7583C405.862 60.7583 405.863 60.7581 405.864 60.7577C405.865 60.7573 405.866 60.7567 405.867 60.7559C405.868 60.7552 405.868 60.7543 405.869 60.7533C405.869 60.7523 405.869 60.7512 405.869 60.7501C406.081 60.5541 406.294 60.358 406.514 60.1702L407.135 60.1947C407.135 60.1947 428.951 56.7392 432.39 84.6608Z" fill="#34CB79"/>
<path opacity="0.2" d="M421.033 145.421L408.754 159.65L388.463 153.657L410.583 163.853L421.033 145.421Z" fill="black"/>
<path d="M494.741 404.79L305.94 405C305.724 404.999 305.517 404.913 305.365 404.76C305.213 404.608 305.127 404.4 305.127 404.185C305.127 403.969 305.213 403.762 305.365 403.609C305.517 403.456 305.724 403.37 305.94 403.369L494.741 403.159C494.957 403.159 495.164 403.245 495.317 403.398C495.47 403.551 495.556 403.758 495.556 403.974C495.556 404.19 495.47 404.398 495.317 404.551C495.164 404.704 494.957 404.79 494.741 404.79Z" fill="#CACACA"/>
<path d="M503.028 278.075C494.187 278.075 484.497 277.741 473.959 277.073C419.449 273.611 348.841 261.574 275.144 243.181C201.446 224.788 133.463 202.235 83.7169 179.677C59.4843 168.688 40.8859 158.287 28.4389 148.76C15.2608 138.676 9.49657 129.885 11.3055 122.634C14.8303 108.507 46.0401 105.417 71.6013 105.312L71.61 107.366C36.5077 107.51 15.7991 113.109 13.2988 123.131C10.1137 135.896 36.0895 155.824 84.5651 177.806C134.201 200.314 202.06 222.824 275.641 241.188C349.222 259.552 419.699 271.568 474.089 275.023C527.206 278.397 559.498 273.011 562.683 260.246C565.327 249.648 547.895 234.035 513.598 216.284L514.543 214.459C539.463 227.358 568.39 245.858 564.676 260.744C562.867 267.995 553.649 273.046 537.279 275.756C527.947 277.301 516.485 278.075 503.028 278.075Z" fill="#6C63FF"/>
</g>
<defs>
<clipPath id="clip0_24026_315">
<rect width="565" height="405" fill="white"/>
</clipPath>
</defs>
</svg>
