<svg width="442" height="405" viewBox="0 0 442 405" fill="none" xmlns="http://www.w3.org/2000/svg">
<g opacity="0.1">
<path d="M134.741 16.9845L92.6403 97.2121C89.9219 102.392 91.712 108.869 96.6667 111.781L162.589 150.53C167.612 153.483 173.997 151.667 176.854 146.474L257.432 0.00518109H162.331C150.819 0.00518109 140.231 6.52086 134.741 16.9845Z" fill="#A0A0B2"/>
<path d="M257.432 0L176.857 146.47C173.995 151.663 167.613 153.483 162.592 150.532L145.386 140.422C149.581 141.121 153.945 139.127 156.167 135.082L230.494 0H257.432Z" fill="#A0A0B2"/>
<path d="M345.595 77.6814L316.557 17.8974C311.23 6.92882 300.375 0.00540963 288.507 0.00540963H204.55L269.011 113.104C268.8 113.202 268.588 113.3 268.376 113.399C264.322 115.286 264.487 121.302 268.639 122.95L324.301 145.056C326.881 146.08 329.774 144.748 330.765 142.082L352.223 84.2961C353.809 80.0216 349.643 75.897 345.595 77.6814Z" fill="#A0A0B2"/>
<path d="M352.224 84.2916L330.76 142.076C329.774 144.751 326.876 146.084 324.299 145.054L307.457 138.363L327.534 84.2916C328.675 81.2251 326.852 78.239 324.237 77.4556C321.746 76.7089 319.619 75.0217 318.455 72.6253L291.868 17.8956C286.544 6.93055 275.693 0 263.819 0H288.508C300.373 0 311.225 6.93055 316.557 17.8956L345.593 77.684C349.647 75.9005 353.806 80.018 352.224 84.2916Z" fill="#A0A0B2"/>
<path d="M289.503 308.179C288.721 304.86 284.58 303.438 282.052 306.051L238.547 351.042C236.811 352.837 236.811 355.746 238.547 357.54L282.22 402.704C284.73 405.299 288.829 403.914 289.654 400.651H353.878C365.701 400.651 376.523 393.78 381.872 382.876L418.519 308.178L289.503 308.179Z" fill="#A0A0B2"/>
<path d="M343.719 308.18L364.543 340.766C369.251 348.133 369.772 357.547 365.908 365.422L357.343 382.877C352.002 393.777 341.176 400.653 329.356 400.653H353.877C365.697 400.653 376.523 393.777 381.874 382.877L418.517 308.181L343.719 308.18Z" fill="#A0A0B2"/>
<path d="M201.856 392.063V312.552C201.856 306.576 197.172 301.731 191.392 301.731H19.0266L63.3847 385.948C68.8829 396.387 79.4574 402.883 90.9515 402.883H191.392C197.171 402.884 201.856 398.039 201.856 392.063Z" fill="#A0A0B2"/>
<path d="M92.1272 301.738L53.8479 367.85L19.0264 301.738H92.1272Z" fill="#A0A0B2"/>
<path d="M201.852 312.553V392.066C201.852 398.04 197.169 402.883 191.392 402.883L163.938 402.884C169.715 402.884 174.398 398.04 174.398 392.066V312.553C174.398 306.579 169.715 301.735 163.938 301.735H191.392C197.168 301.734 201.852 306.579 201.852 312.553Z" fill="#A0A0B2"/>
<path d="M117.65 231.474L109.91 171.234C109.528 168.258 106.884 166.167 104.007 166.562L45.5322 174.597C41.1288 175.202 39.4879 180.741 42.504 183.823L5.59989 238.831C-1.1665 248.916 -1.85323 262.085 3.8244 272.865L43.9836 349.111L109.19 236.47C109.214 236.488 109.236 236.507 109.259 236.525C112.981 239.446 118.265 236.264 117.65 231.474Z" fill="#A0A0B2"/>
<path d="M109.257 236.525C109.239 236.507 109.213 236.489 109.195 236.47L43.9856 349.108L30.5745 323.648L85.1214 229.408C85.9263 228.018 87.4991 227.418 89.0373 227.727C89.0451 227.728 89.0528 227.729 89.0606 227.731C92.3329 228.334 95.6898 225.515 95.1869 221.645L88.3877 168.705L104.003 166.563C106.883 166.168 109.531 168.264 109.914 171.232L117.655 231.48C118.269 236.268 112.981 239.447 109.257 236.525Z" fill="#A0A0B2"/>
<path d="M436.161 234.692L385.68 159.048C382.584 154.408 376.56 153.005 371.839 155.822L306.052 195.081C300.831 198.197 299.229 205.219 302.553 210.421L395.293 355.525L438.32 267.819C443.528 257.203 442.7 244.49 436.161 234.692Z" fill="#A0A0B2"/>
<path d="M438.319 267.821L395.285 355.523L380.852 332.931L412.794 267.82C418.003 257.204 417.176 244.493 410.635 234.695L361.94 161.736L371.841 155.826C376.56 153.004 382.586 154.41 385.679 159.052L436.161 234.696C442.701 244.494 443.527 257.206 438.319 267.821Z" fill="#A0A0B2"/>
</g>
</svg>
