<svg width="180" height="44" viewBox="0 0 180 44" fill="none" xmlns="http://www.w3.org/2000/svg">
<path d="M71.5554 33.832V11.656H86.4389V15.848H76.5166V20.2H85.3259V24.296H76.5166V29.64H87.1704V33.832H71.5554Z" fill="#322153"/>
<path d="M89.3561 25.416C89.3561 24.2 89.5469 23.0587 89.9285 21.992C90.3313 20.904 90.9038 19.9653 91.6458 19.176C92.3879 18.3653 93.289 17.7253 94.349 17.256C95.4091 16.7867 96.6176 16.552 97.9745 16.552C98.865 16.552 99.6812 16.6373 100.423 16.808C101.165 16.9573 101.886 17.1813 102.586 17.48L101.6 21.288C101.155 21.1173 100.667 20.968 100.137 20.84C99.607 20.712 99.0134 20.648 98.3561 20.648C96.9568 20.648 95.9074 21.0853 95.2077 21.96C94.5292 22.8347 94.19 23.9867 94.19 25.416C94.19 26.9307 94.508 28.104 95.1441 28.936C95.8013 29.768 96.9356 30.184 98.5469 30.184C99.1194 30.184 99.7342 30.1307 100.391 30.024C101.049 29.9173 101.653 29.7467 102.204 29.512L102.872 33.416C102.321 33.6507 101.632 33.8533 100.805 34.024C99.9781 34.1947 99.0664 34.28 98.0699 34.28C96.5434 34.28 95.2289 34.056 94.1264 33.608C93.0239 33.1387 92.1123 32.5093 91.3914 31.72C90.6918 30.9307 90.1723 30.0027 89.8331 28.936C89.5151 27.848 89.3561 26.6747 89.3561 25.416Z" fill="#322153"/>
<path d="M120.892 25.384C120.892 26.7067 120.701 27.9227 120.319 29.032C119.938 30.12 119.386 31.0587 118.665 31.848C117.945 32.616 117.075 33.2133 116.058 33.64C115.061 34.0667 113.937 34.28 112.687 34.28C111.457 34.28 110.333 34.0667 109.316 33.64C108.319 33.2133 107.46 32.616 106.74 31.848C106.019 31.0587 105.457 30.12 105.054 29.032C104.651 27.9227 104.45 26.7067 104.45 25.384C104.45 24.0613 104.651 22.856 105.054 21.768C105.478 20.68 106.05 19.752 106.771 18.984C107.513 18.216 108.383 17.6187 109.379 17.192C110.397 16.7653 111.499 16.552 112.687 16.552C113.895 16.552 114.998 16.7653 115.994 17.192C117.012 17.6187 117.881 18.216 118.602 18.984C119.323 19.752 119.885 20.68 120.287 21.768C120.69 22.856 120.892 24.0613 120.892 25.384ZM116.058 25.384C116.058 23.912 115.761 22.76 115.167 21.928C114.595 21.0747 113.768 20.648 112.687 20.648C111.605 20.648 110.768 21.0747 110.174 21.928C109.581 22.76 109.284 23.912 109.284 25.384C109.284 26.856 109.581 28.0293 110.174 28.904C110.768 29.7573 111.605 30.184 112.687 30.184C113.768 30.184 114.595 29.7573 115.167 28.904C115.761 28.0293 116.058 26.856 116.058 25.384Z" fill="#322153"/>
<path d="M131.241 34.152C129.863 34.1307 128.739 33.9813 127.87 33.704C127.022 33.4267 126.343 33.0427 125.834 32.552C125.347 32.04 125.008 31.432 124.817 30.728C124.647 30.0027 124.562 29.192 124.562 28.296V9.768L129.301 9V27.336C129.301 27.7627 129.333 28.1467 129.396 28.488C129.46 28.8293 129.576 29.1173 129.746 29.352C129.937 29.5867 130.202 29.7787 130.541 29.928C130.88 30.0773 131.336 30.1733 131.909 30.216L131.241 34.152Z" fill="#322153"/>
<path d="M133.83 25.544C133.83 24.0507 134.052 22.7493 134.498 21.64C134.964 20.5093 135.568 19.5707 136.31 18.824C137.052 18.0773 137.9 17.512 138.854 17.128C139.83 16.744 140.826 16.552 141.844 16.552C144.218 16.552 146.095 17.288 147.473 18.76C148.851 20.2107 149.54 22.3547 149.54 25.192C149.54 25.4693 149.529 25.7787 149.508 26.12C149.487 26.44 149.466 26.728 149.445 26.984H138.695C138.801 27.9653 139.257 28.744 140.063 29.32C140.869 29.896 141.95 30.184 143.307 30.184C144.176 30.184 145.024 30.1093 145.851 29.96C146.699 29.7893 147.388 29.5867 147.918 29.352L148.554 33.224C148.3 33.352 147.961 33.48 147.537 33.608C147.113 33.736 146.635 33.8427 146.105 33.928C145.597 34.0347 145.045 34.12 144.452 34.184C143.858 34.248 143.264 34.28 142.671 34.28C141.165 34.28 139.851 34.056 138.727 33.608C137.625 33.16 136.703 32.552 135.96 31.784C135.24 30.9947 134.699 30.0667 134.339 29C133.999 27.9333 133.83 26.7813 133.83 25.544ZM144.961 23.72C144.939 23.3147 144.865 22.92 144.738 22.536C144.632 22.152 144.452 21.8107 144.197 21.512C143.964 21.2133 143.657 20.968 143.275 20.776C142.915 20.584 142.459 20.488 141.908 20.488C141.377 20.488 140.922 20.584 140.54 20.776C140.158 20.9467 139.84 21.1813 139.586 21.48C139.332 21.7787 139.13 22.1307 138.982 22.536C138.854 22.92 138.759 23.3147 138.695 23.72H144.961Z" fill="#322153"/>
<path d="M153.038 12.808L157.776 12.04V17H163.469V20.968H157.776V26.888C157.776 27.8907 157.946 28.6907 158.285 29.288C158.646 29.8853 159.356 30.184 160.416 30.184C160.925 30.184 161.444 30.1413 161.974 30.056C162.526 29.9493 163.024 29.8107 163.469 29.64L164.137 33.352C163.564 33.5867 162.928 33.7893 162.229 33.96C161.529 34.1307 160.67 34.216 159.653 34.216C158.359 34.216 157.289 34.0453 156.441 33.704C155.593 33.3413 154.914 32.8507 154.405 32.232C153.897 31.592 153.536 30.824 153.324 29.928C153.133 29.032 153.038 28.04 153.038 26.952V12.808Z" fill="#322153"/>
<path d="M173.099 30.504C173.565 30.504 174.011 30.4933 174.435 30.472C174.859 30.4507 175.198 30.4187 175.452 30.376V26.76C175.262 26.7173 174.975 26.6747 174.594 26.632C174.212 26.5893 173.862 26.568 173.544 26.568C173.099 26.568 172.675 26.6 172.272 26.664C171.89 26.7067 171.551 26.8027 171.254 26.952C170.958 27.1013 170.724 27.304 170.555 27.56C170.385 27.816 170.3 28.136 170.3 28.52C170.3 29.2667 170.544 29.7893 171.032 30.088C171.541 30.3653 172.23 30.504 173.099 30.504ZM172.717 16.552C174.117 16.552 175.283 16.712 176.216 17.032C177.148 17.352 177.891 17.8107 178.442 18.408C179.014 19.0053 179.417 19.7307 179.65 20.584C179.883 21.4373 180 22.3867 180 23.432V33.352C179.322 33.5013 178.378 33.672 177.17 33.864C175.961 34.0773 174.498 34.184 172.781 34.184C171.7 34.184 170.714 34.088 169.823 33.896C168.954 33.704 168.201 33.3947 167.565 32.968C166.929 32.52 166.442 31.944 166.102 31.24C165.763 30.536 165.594 29.672 165.594 28.648C165.594 27.6667 165.784 26.8347 166.166 26.152C166.569 25.4693 167.099 24.9253 167.756 24.52C168.413 24.1147 169.166 23.8267 170.014 23.656C170.862 23.464 171.742 23.368 172.654 23.368C173.269 23.368 173.809 23.4 174.276 23.464C174.763 23.5067 175.156 23.5707 175.452 23.656V23.208C175.452 22.3973 175.209 21.7467 174.721 21.256C174.233 20.7653 173.385 20.52 172.177 20.52C171.371 20.52 170.576 20.584 169.791 20.712C169.007 20.8187 168.329 20.9787 167.756 21.192L167.152 17.352C167.428 17.2667 167.767 17.1813 168.17 17.096C168.594 16.9893 169.049 16.904 169.537 16.84C170.025 16.7547 170.534 16.6907 171.064 16.648C171.615 16.584 172.166 16.552 172.717 16.552Z" fill="#322153"/>
<path d="M14.5514 1.84962L10.0047 10.5861C9.71113 11.1501 9.90446 11.8554 10.4395 12.1725L17.5588 16.3922C18.1013 16.7137 18.7909 16.516 19.0994 15.9504L27.8015 0.000644684H17.531C16.2878 0.000644684 15.1443 0.710174 14.5514 1.84962V1.84962Z" fill="#29A361"/>
<path d="M27.8014 0L19.0996 15.95C18.7906 16.5154 18.1014 16.7136 17.5591 16.3923L15.7009 15.2913C16.1539 15.3674 16.6253 15.1503 16.8652 14.7099L24.8922 0H27.8014Z" fill="#248F55"/>
<path d="M37.3228 8.45922L34.1869 1.94901C33.6116 0.754574 32.4393 0.000644684 31.1575 0.000644684H22.0906L29.0521 12.3166C29.0293 12.3273 29.0064 12.338 28.9836 12.3487C28.5457 12.5542 28.5635 13.2093 29.0119 13.3888L35.0232 15.796C35.3018 15.9076 35.6143 15.7625 35.7212 15.4721L38.0386 9.17953C38.2099 8.71406 37.76 8.26491 37.3228 8.45922V8.45922Z" fill="#34CB79"/>
<path d="M38.0388 9.17899L35.7208 15.4715C35.6143 15.7627 35.3013 15.9079 35.023 15.7958L33.2041 15.0671L35.3724 9.17899C35.4957 8.84506 35.2988 8.51988 35.0163 8.43458C34.7473 8.35326 34.5177 8.16954 34.392 7.90858L31.5206 1.94875C30.9457 0.754706 29.7738 0 28.4915 0H31.1578C32.4392 0 33.6111 0.754706 34.187 1.94875L37.3228 8.45945C37.7605 8.26524 38.2097 8.71361 38.0388 9.17899Z" fill="#2FB86E"/>
<path d="M31.2651 33.5593C31.1807 33.1978 30.7335 33.043 30.4605 33.3275L25.7622 38.2268C25.5747 38.4223 25.5747 38.7391 25.7622 38.9345L30.4787 43.8526C30.7497 44.1352 31.1924 43.9844 31.2814 43.6291H38.2174C39.4943 43.6291 40.6629 42.8809 41.2407 41.6934L45.1983 33.5592H31.2651V33.5593Z" fill="#29A361"/>
<path d="M37.1202 33.5594L39.3692 37.1079C39.8776 37.9101 39.9339 38.9353 39.5166 39.7928L38.5916 41.6935C38.0147 42.8806 36.8456 43.6293 35.5691 43.6293H38.2173C39.4938 43.6293 40.6629 42.8806 41.2408 41.6935L45.1981 33.5595H37.1202V33.5594Z" fill="#248F55"/>
<path d="M21.7997 42.6939V34.0356C21.7997 33.3849 21.2938 32.8572 20.6697 32.8572H2.05493L6.84541 42.0281C7.43919 43.1649 8.58119 43.8722 9.82251 43.8722H20.6697C21.2937 43.8723 21.7997 43.3448 21.7997 42.6939Z" fill="#29A361"/>
<path d="M9.9495 32.858L5.8155 40.0573L2.05493 32.858H9.9495Z" fill="#248F55"/>
<path d="M21.7997 34.0358V42.6944C21.7997 43.345 21.2938 43.8724 20.67 43.8724H17.7051C18.329 43.8724 18.8348 43.345 18.8348 42.6944V34.0358C18.8348 33.3852 18.329 32.8578 17.7051 32.8578H20.67C21.2938 32.8577 21.7997 33.3852 21.7997 34.0358Z" fill="#248F55"/>
<path d="M12.7057 25.2066L11.8698 18.6467C11.8285 18.3226 11.543 18.0949 11.2323 18.1379L4.91728 19.0129C4.44174 19.0788 4.26452 19.682 4.59025 20.0176L0.604764 26.0077C-0.125976 27.106 -0.200141 28.54 0.413018 29.7138L4.75004 38.0167L11.7921 25.7507C11.7946 25.7526 11.797 25.7546 11.7995 25.7566C12.2015 26.0747 12.7722 25.7282 12.7057 25.2066Z" fill="#34CB79"/>
<path d="M11.7991 25.7566C11.7972 25.7545 11.7944 25.7526 11.7924 25.7506L4.7501 38.0163L3.30176 35.2438L9.03364 25.2586L9.19259 24.9816C9.27952 24.8302 9.44937 24.7648 9.61549 24.7984C9.61633 24.7986 9.61717 24.7987 9.61801 24.7989C9.97141 24.8646 10.3339 24.5576 10.2796 24.1362L9.54533 18.3712L11.2317 18.138C11.5427 18.095 11.8288 18.3232 11.87 18.6464L12.7061 25.2072C12.7724 25.7285 12.2013 26.0748 11.7991 25.7566V25.7566Z" fill="#2FB86E"/>
<path d="M47.1034 25.5569L41.6517 17.3197C41.3173 16.8144 40.6668 16.6615 40.1569 16.9684L33.0522 21.2435C32.4883 21.5828 32.3153 22.3475 32.6743 22.9139L42.6898 38.7151L47.3366 29.1643C47.899 28.0083 47.8096 26.6239 47.1034 25.5569V25.5569Z" fill="#34CB79"/>
<path d="M47.3368 29.1645L42.6893 38.7148L41.1305 36.2546L44.5802 29.1644C45.1427 28.0084 45.0534 26.6242 44.347 25.5572L39.0881 17.6123L40.1574 16.9687C40.667 16.6614 41.3178 16.8145 41.6518 17.32L47.1036 25.5573C47.81 26.6243 47.8992 28.0085 47.3368 29.1645V29.1645Z" fill="#2FB86E"/>
</svg>
